<?xml version="1.0" encoding="utf-8"?>
<svg version="1.1" xmlns="http://www.w3.org/2000/svg" xmlns:xlink="http://www.w3.org/1999/xlink" height="2698" width="202">
  <defs>
    <path id="path-1" opacity="1" fill-rule="evenodd" d="M101,0 C156.19150244940002,0 201,44.8084975506 201,100 L201,221 C201,276.1915024494 156.19150244940002,321 101,321 C45.80849755060001,321 1.0000000000000142,276.1915024494 1,221 L1,100 C1,44.80849755060001 45.80849755059998,1.4210854715202004e-14 100.99999999999999,0 L101,0Z"/>
    <path id="path-2" opacity="1" fill-rule="evenodd" d="M101.5,39 C137.650434104357,39 167,68.349565895643 167,104.5 L167,216.5 C167,252.650434104357 137.650434104357,282 101.5,282 C65.34956589564301,282 36.000000000000014,252.650434104357 36,216.5 L36,104.5 C36,68.34956589564301 65.349565895643,39.000000000000014 101.49999999999999,39 L101.5,39Z"/>
    <path id="path-3" opacity="1" fill-rule="evenodd" d="M102,880 C157.19150244940002,880 202,924.8084975506 202,980 L202,1101 C202,1156.1915024494 157.19150244940002,1201 102,1201 C46.80849755060001,1201 2.000000000000014,1156.1915024494 2,1101 L2,980 C2,924.8084975506 46.80849755059998,880 101.99999999999999,880 L102,880Z"/>
    <path id="path-4" opacity="1" fill-rule="evenodd" d="M102.5,919 C138.650434104357,919 168,948.349565895643 168,984.5 L168,1096.5 C168,1132.650434104357 138.650434104357,1162 102.5,1162 C66.34956589564301,1162 37.000000000000014,1132.650434104357 37,1096.5 L37,984.5 C37,948.349565895643 66.349565895643,919 102.49999999999999,919 L102.5,919Z"/>
    <path id="path-5" opacity="1" fill-rule="evenodd" d="M101,449 C156.19150244940002,449 201,493.8084975506 201,549 L201,670 C201,725.1915024494 156.19150244940002,770 101,770 C45.80849755060001,770 1.0000000000000142,725.1915024494 1,670 L1,549 C1,493.8084975506 45.80849755059998,449 100.99999999999999,449 L101,449Z"/>
    <path id="path-6" opacity="1" fill-rule="evenodd" d="M101.5,488 C137.650434104357,488 167,517.349565895643 167,553.5 L167,665.5 C167,701.650434104357 137.650434104357,731 101.5,731 C65.34956589564301,731 36.000000000000014,701.650434104357 36,665.5 L36,553.5 C36,517.349565895643 65.349565895643,488 101.49999999999999,488 L101.5,488Z"/>
    <path id="path-7" opacity="1" fill-rule="evenodd" d="M100.5,240 C111.26234297763301,240 120,248.737657022367 120,259.5 L120,505.5 C120,516.262342977633 111.26234297763301,525 100.5,525 C89.737657022367,525 81,516.262342977633 81,505.5 L81,259.5 C81,248.737657022367 89.73765702236699,240 100.5,240 L100.5,240Z"/>
    <path id="path-8" opacity="1" fill-rule="evenodd" d="M101.5,686 C112.26234297763301,686 121,694.737657022367 121,705.5 L121,951.5 C121,962.262342977633 112.26234297763301,971 101.5,971 C90.737657022367,971 82,962.262342977633 82,951.5 L82,705.5 C82,694.737657022367 90.73765702236699,686 101.5,686 L101.5,686Z"/>
    <path id="path-9" opacity="1" fill-rule="evenodd" d="M100,1307 C155.19150244940002,1307 200,1351.8084975506 200,1407 L200,1528 C200,1583.1915024494 155.19150244940002,1628 100,1628 C44.80849755060001,1628 1.4210854715202004e-14,1583.1915024494 0,1528 L0,1407 C0,1351.8084975506 44.80849755059998,1307 99.99999999999999,1307 L100,1307Z"/>
    <path id="path-10" opacity="1" fill-rule="evenodd" d="M100.5,1346 C136.650434104357,1346 166,1375.349565895643 166,1411.5 L166,1523.5 C166,1559.650434104357 136.650434104357,1589 100.5,1589 C64.34956589564301,1589 35.000000000000014,1559.650434104357 35,1523.5 L35,1411.5 C35,1375.349565895643 64.349565895643,1346 100.49999999999999,1346 L100.5,1346Z"/>
    <path id="path-11" opacity="1" fill-rule="evenodd" d="M102.5,1106 C113.26234297763301,1106 122,1114.737657022367 122,1125.5 L122,1371.5 C122,1382.2623429776331 113.26234297763301,1391 102.5,1391 C91.737657022367,1391 83,1382.2623429776331 83,1371.5 L83,1125.5 C83,1114.737657022367 91.73765702236699,1106 102.5,1106 L102.5,1106Z"/>
    <path id="path-12" opacity="1" fill-rule="evenodd" d="M101,2187 C156.19150244940002,2187 201,2231.8084975506 201,2287 L201,2408 C201,2463.1915024494 156.19150244940002,2508 101,2508 C45.80849755060001,2508 1.0000000000000142,2463.1915024494 1,2408 L1,2287 C1,2231.8084975506 45.80849755059998,2187 100.99999999999999,2187 L101,2187Z"/>
    <path id="path-13" opacity="1" fill-rule="evenodd" d="M101.5,2226 C137.650434104357,2226 167,2255.349565895643 167,2291.5 L167,2403.5 C167,2439.650434104357 137.650434104357,2469 101.5,2469 C65.34956589564301,2469 36.000000000000014,2439.650434104357 36,2403.5 L36,2291.5 C36,2255.349565895643 65.349565895643,2226 101.49999999999999,2226 L101.5,2226Z"/>
    <path id="path-14" opacity="1" fill-rule="evenodd" d="M100,1756 C155.19150244940002,1756 200,1800.8084975506 200,1856 L200,1977 C200,2032.1915024494 155.19150244940002,2077 100,2077 C44.80849755060001,2077 1.4210854715202004e-14,2032.1915024494 0,1977 L0,1856 C0,1800.8084975506 44.80849755059998,1756 99.99999999999999,1756 L100,1756Z"/>
    <path id="path-15" opacity="1" fill-rule="evenodd" d="M100.5,1795 C136.650434104357,1795 166,1824.349565895643 166,1860.5 L166,1972.5 C166,2008.650434104357 136.650434104357,2038 100.5,2038 C64.34956589564301,2038 35.000000000000014,2008.650434104357 35,1972.5 L35,1860.5 C35,1824.349565895643 64.349565895643,1795 100.49999999999999,1795 L100.5,1795Z"/>
    <path id="path-16" opacity="1" fill-rule="evenodd" d="M99.5,1547 C110.26234297763301,1547 119,1555.737657022367 119,1566.5 L119,1812.5 C119,1823.2623429776331 110.26234297763301,1832 99.5,1832 C88.737657022367,1832 80,1823.2623429776331 80,1812.5 L80,1566.5 C80,1555.737657022367 88.73765702236699,1547 99.5,1547 L99.5,1547Z"/>
    <path id="path-17" opacity="1" fill-rule="evenodd" d="M100.5,1993 C111.26234297763301,1993 120,2001.737657022367 120,2012.5 L120,2258.5 C120,2269.262342977633 111.26234297763301,2278 100.5,2278 C89.737657022367,2278 81,2269.262342977633 81,2258.5 L81,2012.5 C81,2001.737657022367 89.73765702236699,1993 100.5,1993 L100.5,1993Z"/>
    <path id="path-18" opacity="1" fill-rule="evenodd" d="M101.5,2413 C112.26234297763301,2413 121,2421.737657022367 121,2432.5 L121,2678.5 C121,2689.262342977633 112.26234297763301,2698 101.5,2698 C90.737657022367,2698 82,2689.262342977633 82,2678.5 L82,2432.5 C82,2421.737657022367 90.73765702236699,2413 101.5,2413 L101.5,2413Z"/>
  </defs>
  <g opacity="1">
    <g opacity="1">
      <g opacity="1">
        <g opacity="1">
          <use xlink:href="#path-1" fill="rgb(77,74,74)" fill-opacity="1"/>
        </g>
        <g opacity="1">
          <use xlink:href="#path-2" fill="rgb(255,255,255)" fill-opacity="1"/>
        </g>
      </g>
      <g opacity="1">
        <g opacity="1">
          <use xlink:href="#path-3" fill="rgb(77,74,74)" fill-opacity="1"/>
        </g>
        <g opacity="1">
          <use xlink:href="#path-4" fill="rgb(255,255,255)" fill-opacity="1"/>
        </g>
      </g>
      <g opacity="1">
        <g opacity="1">
          <use xlink:href="#path-5" fill="rgb(77,74,74)" fill-opacity="1"/>
        </g>
        <g opacity="1">
          <use xlink:href="#path-6" fill="rgb(255,255,255)" fill-opacity="1"/>
        </g>
      </g>
      <g opacity="1">
        <use xlink:href="#path-7" fill="rgb(81,79,79)" fill-opacity="1"/>
      </g>
      <g opacity="1">
        <use xlink:href="#path-8" fill="rgb(81,79,79)" fill-opacity="1"/>
      </g>
      <g opacity="1">
        <g opacity="1">
          <use xlink:href="#path-9" fill="rgb(77,74,74)" fill-opacity="1"/>
        </g>
        <g opacity="1">
          <use xlink:href="#path-10" fill="rgb(255,255,255)" fill-opacity="1"/>
        </g>
      </g>
      <g opacity="1">
        <use xlink:href="#path-11" fill="rgb(81,79,79)" fill-opacity="1"/>
      </g>
      <g opacity="1">
        <g opacity="1">
          <use xlink:href="#path-12" fill="rgb(77,74,74)" fill-opacity="1"/>
        </g>
        <g opacity="1">
          <use xlink:href="#path-13" fill="rgb(255,255,255)" fill-opacity="1"/>
        </g>
      </g>
      <g opacity="1">
        <g opacity="1">
          <use xlink:href="#path-14" fill="rgb(77,74,74)" fill-opacity="1"/>
        </g>
        <g opacity="1">
          <use xlink:href="#path-15" fill="rgb(255,255,255)" fill-opacity="1"/>
        </g>
      </g>
      <g opacity="1">
        <use xlink:href="#path-16" fill="rgb(81,79,79)" fill-opacity="1"/>
      </g>
      <g opacity="1">
        <use xlink:href="#path-17" fill="rgb(81,79,79)" fill-opacity="1"/>
      </g>
      <g opacity="1">
        <use xlink:href="#path-18" fill="rgb(81,79,79)" fill-opacity="1"/>
      </g>
    </g>
  </g>
</svg>