<svg xmlns="http://www.w3.org/2000/svg" xmlns:xlink="http://www.w3.org/1999/xlink" height="1336.1617609987106" width="1417.2045324149763">
  <g opacity="1">
    <g opacity="1">
      <path fill-opacity="0" stroke="rgb(128,128,128)" stroke-opacity="1" stroke-width="10" stroke-linecap="butt" stroke-linejoin="miter" opacity="1" fill-rule="evenodd" d="M506.9853693793134 874.6817295394853C506.9853693793134 874.6817295394853 535.5862564679574 589.6975260487421 535.5862564679574 376.333026048742C535.5862564679574 162.96852604874206 506.9853693793134 184.18172953948522 506.9853693793134 184.18172953948522C506.9853693793134 184.18172953948522 496.6024965946422 114.95475665680276 542.3344965946421 60.72525665680275C588.0664965946421 6.495756656802769 659.4853693793134 29.181729539485133 659.4853693793134 29.181729539485133C659.4853693793134 29.181729539485133 728.6719719339281 4.383576303801391 785.0644719339282 58.6130763038014C841.4569719339282 112.84257630380141 837.4853693793135 184.1817295394852 837.4853693793135 184.1817295394852C837.4853693793135 184.1817295394852 812.3756364866305 197.80700644560918 812.3756364866305 411.1715064456092C812.3756364866305 624.5360064456092 837.4853693793135 874.6817295394853 837.4853693793135 874.6817295394853C837.4853693793135 874.6817295394853 898.6049721548015 825.9039147463893 983.1164721548013 790.0599147463893C1067.6279721548012 754.215914746389 1110.9853693793134 758.6817295394853 1110.9853693793134 758.6817295394853C1110.9853693793134 758.6817295394853 1187.5815574749488 760.2957608275833 1258.0335574749488 796.1397608275831C1328.4855574749488 831.9837608275832 1338.9853693793134 874.6817295394853 1338.9853693793134 874.6817295394853C1338.9853693793134 874.6817295394853 1393.681381867584 948.6699789544327 1393.681381867584 1041.0609789544326C1393.681381867584 1133.4519789544327 1338.9853693793134 1173.681729539485 1338.9853693793134 1173.681729539485C1338.9853693793134 1173.681729539485 1303.7495131658268 1240.1177474019983 1233.2975131658268 1282.2962474019982C1162.8455131658268 1324.474747401998 1110.9853693793134 1310.181729539485 1110.9853693793134 1310.181729539485C1110.9853693793134 1310.181729539485 1065.0981838757161 1323.1875172071532 980.5866838757162 1289.3520172071533C896.0751838757161 1255.5165172071534 837.4853693793135 1200.681729539485 837.4853693793135 1200.681729539485C837.4853693793135 1200.681729539485 788.957424898232 1171.2615229634573 686.832924898232 1171.2615229634573C584.708424898232 1171.2615229634573 506.9853693793134 1200.681729539485 506.9853693793134 1200.681729539485C506.9853693793134 1200.681729539485 461.8484401448021 1251.1168506730157 381.508440144802 1284.9523506730156C301.16844014480205 1318.7878506730158 246.98536937931337 1310.181729539485 246.98536937931337 1310.181729539485C246.98536937931337 1310.181729539485 196.44218516267202 1320.8669184199327 134.48768516267202 1287.0314184199328C72.53318516267203 1253.195918419933 46.4853693793134 1200.681729539485 46.4853693793134 1200.681729539485C46.4853693793134 1200.681729539485 23.523150547392113 1128.6251405786224 23.523150547392106 1040.5601405786224C23.5231505473921 952.4951405786222 46.4853693793134 915.6817295394851 46.4853693793134 915.6817295394851C46.4853693793134 915.6817295394851 71.75983398737962 873.4555758404751 133.7143339873796 834.8305758404751C195.66883398737963 796.2055758404751 246.98536937931337 790.681729539485 246.98536937931337 790.681729539485C246.98536937931337 790.681729539485 298.87177014513384 769.5986861903606 379.2117701451338 795.5546861903606C459.5517701451339 821.5106861903604 506.9853693793134 874.6817295394853 506.9853693793134 874.6817295394853Z"/>
    </g>
  </g>
</svg>